<svg xmlns="http://www.w3.org/2000/svg" xmlns:xlink="http://www.w3.org/1999/xlink" version="1.1" width="1000" height="1000" viewBox="0 0 1000 1000" xml:space="preserve">
<desc>Created with Fabric.js 3.5.0</desc>
<defs>
</defs>
<rect x="0" y="0" width="100%" height="100%" fill="#ffffff"/>
<g transform="matrix(22.7273 0 0 22.7273 500.0005 500.0004)" id="433070">
<path style="stroke: none; stroke-width: 1; stroke-dasharray: none; stroke-linecap: butt; stroke-dashoffset: 0; stroke-linejoin: miter; stroke-miterlimit: 4; is-custom-font: none; font-file-url: none; fill: rgb(165,194,203); fill-rule: nonzero; opacity: 1;" vector-effect="non-scaling-stroke" transform=" translate(-24, -25)" d="M 4 38 v -3 h 20 v 3 Z m 0 -10.5 v -3 h 10 v 3 Z M 4 17 v -3 h 10 v 3 Z m 37.9 21 l -8 -8 q -1.3 1 -2.8 1.5 q -1.5 0.5 -3.1 0.5 q -4.15 0 -7.075 -2.925 T 18 22 q 0 -4.15 2.925 -7.075 T 28 12 q 4.15 0 7.075 2.925 T 38 22 q 0 1.6 -0.5 3.1 T 36 27.9 l 8 8 Z M 28 29 q 2.9 0 4.95 -2.05 Q 35 24.9 35 22 q 0 -2.9 -2.05 -4.95 Q 30.9 15 28 15 q -2.9 0 -4.95 2.05 Q 21 19.1 21 22 q 0 2.9 2.05 4.95 Q 25.1 29 28 29 Z" stroke-linecap="round"/>
</g>
</svg>